<svg width="180" height="39" viewBox="0 0 180 39" fill="none" xmlns="http://www.w3.org/2000/svg">
<path d="M11.3899 37.9999L27.5353 22.4524L29.3293 9.1474L26.4889 3.1676L20.8828 8.84841L13.7818 22.6019L11.3899 37.9999Z" stroke="white" stroke-width="1.911" stroke-miterlimit="10" stroke-linecap="round" stroke-linejoin="round"/>
<path d="M20.8828 8.84848L8.99799 1L10.8667 8.54949" stroke="white" stroke-width="1.911" stroke-miterlimit="10" stroke-linecap="round" stroke-linejoin="round"/>
<path d="M26.4889 3.1676L45.0262 5.41003L29.3293 9.1474L1 8.25043L20.0606 29.7029" stroke="white" stroke-width="1.911" stroke-miterlimit="10" stroke-linecap="round" stroke-linejoin="round"/>
<path d="M51.3798 14.7536C51.3798 16.3233 52.5757 16.9213 53.9959 16.9213C54.8929 16.9213 56.3131 16.6223 56.3131 15.4263C56.3131 14.1556 54.5192 13.9314 52.8 13.4829C51.0808 13.0344 49.2869 12.3617 49.2869 10.1192C49.2869 7.72733 51.604 6.53137 53.697 6.53137C56.1636 6.53137 58.406 7.57783 58.406 10.3435H55.8646C55.7899 8.92329 54.7434 8.54955 53.5475 8.54955C52.7252 8.54955 51.7535 8.92329 51.7535 9.89501C51.7535 10.792 52.3515 10.9415 55.2667 11.6889C56.1636 11.9132 58.7798 12.4364 58.7798 15.1273C58.7798 17.295 57.0606 18.9394 53.8465 18.9394C51.2303 18.9394 48.7636 17.6687 48.8384 14.7536H51.3798Z" fill="white"/>
<path d="M61.5454 6.83032H66.8525C69.7677 6.83032 70.9636 8.69901 70.9636 10.6424C70.9636 12.5859 69.8424 14.4546 66.8525 14.4546H64.0869V18.7152H61.4707V6.83032H61.5454ZM64.1616 12.4364H66.1798C67.3757 12.4364 68.497 12.1374 68.497 10.6424C68.497 9.14749 67.3757 8.8485 66.1798 8.8485H64.1616V12.4364Z" fill="white"/>
<path d="M75.8222 6.83032H78.5131L82.9232 18.6404H80.2323L79.3353 16.0243H74.9252L74.0283 18.6404H71.4121L75.8222 6.83032ZM75.598 14.0808H78.6626L77.1676 9.74547L75.598 14.0808Z" fill="white"/>
<path d="M85.1656 6.83032H91.5192C93.6121 6.83032 94.9575 8.32527 94.9575 10.1192C94.9575 11.5394 94.3596 12.5859 93.0889 13.1091C94.3596 13.4081 94.7333 14.6788 94.8081 15.8748C94.8828 16.6222 94.8081 18.0424 95.3313 18.6404H92.7151C92.4161 17.8929 92.4161 16.7717 92.2666 15.8C92.1171 14.5293 91.5939 14.0061 90.3232 14.0061H87.707V18.6404H85.0909V6.83032H85.1656ZM87.7818 12.2121H90.6222C91.7434 12.2121 92.4161 11.6889 92.4161 10.4929C92.4161 9.37174 91.8182 8.8485 90.6222 8.8485H87.7818V12.2121Z" fill="white"/>
<path d="M98.3959 6.83032H104.749C106.842 6.83032 108.188 8.32527 108.188 10.1192C108.188 11.5394 107.59 12.5859 106.319 13.1091C107.59 13.4081 107.964 14.6788 108.038 15.8748C108.113 16.6222 108.038 18.0424 108.562 18.6404H105.945C105.646 17.8929 105.646 16.7717 105.497 15.8C105.347 14.5293 104.824 14.0061 103.553 14.0061H100.937V18.6404H98.3212V6.83032H98.3959ZM101.012 12.2121H103.852C104.974 12.2121 105.646 11.6889 105.646 10.4929C105.646 9.37174 105.048 8.8485 103.852 8.8485H101.012V12.2121Z" fill="white"/>
<path d="M116.859 6.60608C120.521 6.60608 122.689 9.37173 122.689 12.8101C122.689 16.2485 120.521 18.9394 116.859 18.9394C113.196 18.9394 111.028 16.1738 111.028 12.8101C111.028 9.29699 113.196 6.60608 116.859 6.60608ZM116.859 16.7717C119.176 16.7717 120.073 14.7535 120.073 12.8101C120.073 10.7172 119.176 8.77376 116.859 8.77376C114.541 8.77376 113.644 10.7919 113.644 12.8101C113.644 14.8283 114.541 16.7717 116.859 16.7717Z" fill="white"/>
<path d="M136.966 18.7151H134.349L132.331 10.6424L130.388 18.7151H127.772L124.632 6.90503H127.248L129.117 14.9778L131.135 6.90503H133.602L135.62 15.0525L137.564 6.90503H140.105L136.966 18.7151Z" fill="white"/>
<path d="M142.572 6.83032H148.103C150.345 6.83032 151.84 7.5778 151.84 9.74547C151.84 10.8667 151.242 11.6889 150.271 12.2121C151.691 12.6606 152.438 13.7071 152.438 15.202C152.438 17.594 150.42 18.6404 148.252 18.6404H142.497V6.83032H142.572ZM145.113 11.6142H147.729C148.626 11.6142 149.299 11.1657 149.299 10.194C149.299 9.07275 148.402 8.8485 147.505 8.8485H145.038V11.6142H145.113ZM145.113 16.697H147.879C148.925 16.697 149.822 16.398 149.822 15.1273C149.822 13.9313 149.075 13.4081 147.953 13.4081H145.113V16.697Z" fill="white"/>
<path d="M160.735 6.60608C164.398 6.60608 166.566 9.37173 166.566 12.8101C166.566 16.2485 164.398 18.9394 160.735 18.9394C157.073 18.9394 154.905 16.1738 154.905 12.8101C154.905 9.29699 157.073 6.60608 160.735 6.60608ZM160.735 16.7717C163.052 16.7717 163.949 14.7535 163.949 12.8101C163.949 10.7172 163.052 8.77376 160.735 8.77376C158.418 8.77376 157.521 10.7919 157.521 12.8101C157.521 14.8283 158.418 16.7717 160.735 16.7717Z" fill="white"/>
<path d="M172.396 12.5111L168.584 6.90503H171.574L173.891 10.6424L176.283 6.90503H179.123L175.311 12.5111L179.422 18.7151H176.357L173.741 14.604L171.125 18.7151H168.21L172.396 12.5111Z" fill="white"/>
<path d="M50.7818 32.0954C50.7818 33.2167 51.604 33.5904 52.5757 33.5904C53.6969 33.5904 54.0707 33.0672 54.0707 32.5439C54.0707 32.0207 53.7717 31.7965 53.4727 31.647C52.9495 31.4227 52.3515 31.348 51.3798 31.049C50.1838 30.75 49.8101 30.0025 49.8101 29.255C49.8101 27.8348 51.1555 27.1621 52.4262 27.1621C53.9212 27.1621 55.1919 27.9843 55.1919 29.4045H53.9212C53.8464 28.5076 53.2484 28.1338 52.3515 28.1338C51.7535 28.1338 51.006 28.3581 51.006 29.0308C51.006 29.554 51.3798 29.7783 51.8282 29.9278C51.903 29.9278 53.5474 30.3763 53.9212 30.451C54.8929 30.75 55.3414 31.4975 55.3414 32.2449C55.3414 33.8146 53.9212 34.4874 52.501 34.4874C50.8565 34.4874 49.5858 33.7399 49.5111 31.9459H50.7818V32.0954Z" fill="white"/>
<path d="M56.5374 27.3112H61.6949V28.3576H57.7333V30.2263H61.3212V31.2728H57.7333V33.3657H61.6949V34.4122H56.4626V27.3112H56.5374Z" fill="white"/>
<path d="M64.8343 27.3112H66.1798L68.9454 34.4122H67.6L66.9272 32.5435H64.0868L63.4141 34.4122H62.1434L64.8343 27.3112ZM64.3858 31.5718H66.5535L65.507 28.5071L64.3858 31.5718Z" fill="white"/>
<path d="M69.6929 27.3112H71.4868L73.4303 32.9172L75.3737 27.3112H77.0929V34.4122H75.8969V28.8809L73.9535 34.4122H72.907L70.9636 28.8809V34.4122H69.6929V27.3112Z" fill="white"/>
<path d="M78.6626 27.3112H79.9333V33.3657H83.5959V34.4122H78.6626V27.3112Z" fill="white"/>
<path d="M84.4929 27.3112H89.6505V28.3576H85.7636V30.2263H89.3515V31.2728H85.7636V33.3657H89.7252V34.4122H84.4929V27.3112Z" fill="white"/>
<path d="M91.6686 32.095C91.6686 33.2162 92.4909 33.5899 93.4626 33.5899C94.5838 33.5899 94.9575 33.0667 94.9575 32.5434C94.9575 32.0202 94.6585 31.796 94.3596 31.6465C93.8363 31.4222 93.2383 31.3475 92.2666 31.0485C91.0707 30.7495 90.6969 30.002 90.6969 29.2546C90.6969 27.8344 92.0424 27.1616 93.3131 27.1616C94.808 27.1616 96.0787 27.9838 96.0787 29.404H94.808C94.7333 28.5071 94.1353 28.1333 93.2383 28.1333C92.6404 28.1333 91.8929 28.3576 91.8929 29.0303C91.8929 29.5535 92.2666 29.7778 92.7151 29.9273C92.7899 29.9273 94.4343 30.3758 94.808 30.4505C95.7798 30.7495 96.2282 31.497 96.2282 32.2444C96.2282 33.8141 94.808 34.4869 93.3878 34.4869C91.7434 34.4869 90.4727 33.7394 90.3979 31.9455H91.6686V32.095Z" fill="white"/>
<path d="M98.2464 32.095C98.2464 33.2162 99.0686 33.5899 100.04 33.5899C101.162 33.5899 101.535 33.0667 101.535 32.5434C101.535 32.0202 101.236 31.796 100.937 31.6465C100.414 31.4222 99.8161 31.3475 98.8444 31.0485C97.6484 30.7495 97.2747 30.002 97.2747 29.2546C97.2747 27.8344 98.6202 27.1616 99.8909 27.1616C101.386 27.1616 102.657 27.9838 102.657 29.404H101.386C101.311 28.5071 100.713 28.1333 99.8161 28.1333C99.2181 28.1333 98.4707 28.3576 98.4707 29.0303C98.4707 29.5535 98.8444 29.7778 99.2929 29.9273C99.3676 29.9273 101.012 30.3758 101.386 30.4505C102.358 30.7495 102.806 31.497 102.806 32.2444C102.806 33.8141 101.386 34.4869 99.9656 34.4869C98.3212 34.4869 97.0505 33.7394 96.9757 31.9455H98.2464V32.095Z" fill="white"/>
<path d="M111.701 29.5536C111.477 28.7314 110.953 28.1334 109.907 28.1334C108.412 28.1334 107.739 29.4788 107.739 30.8243C107.739 32.1697 108.412 33.5152 109.907 33.5152C111.028 33.5152 111.626 32.693 111.701 31.6465H112.897C112.822 33.3657 111.551 34.5617 109.832 34.5617C107.665 34.5617 106.394 32.8425 106.394 30.8243C106.394 28.8061 107.665 27.0869 109.832 27.0869C111.477 27.0869 112.673 27.9839 112.822 29.5536H111.701Z" fill="white"/>
<path d="M120.671 30.899C120.671 32.9172 119.4 34.6364 117.232 34.6364C115.065 34.6364 113.794 32.9172 113.794 30.899C113.794 28.8808 115.065 27.1616 117.232 27.1616C119.4 27.1616 120.671 28.8061 120.671 30.899ZM115.065 30.899C115.065 32.2444 115.737 33.5899 117.232 33.5899C118.727 33.5899 119.4 32.2444 119.4 30.899C119.4 29.5535 118.727 28.2081 117.232 28.2081C115.737 28.2081 115.065 29.4788 115.065 30.899Z" fill="white"/>
<path d="M121.867 27.3112H123.212L126.501 32.5435V27.3112H127.697V34.4122H126.351L123.137 29.1798V34.4122H121.941V27.3112H121.867Z" fill="white"/>
<path d="M129.117 27.3112H130.463L133.751 32.5435V27.3112H134.947V34.4122H133.602L130.388 29.1798V34.4122H129.192V27.3112H129.117Z" fill="white"/>
<path d="M136.517 27.3112H141.675V28.3576H137.788V30.2263H141.376V31.2728H137.788V33.3657H141.749V34.4122H136.517V27.3112Z" fill="white"/>
<path d="M147.729 29.5536C147.505 28.7314 146.982 28.1334 145.935 28.1334C144.44 28.1334 143.768 29.4788 143.768 30.8243C143.768 32.1697 144.44 33.5152 145.935 33.5152C147.056 33.5152 147.654 32.693 147.729 31.6465H148.925C148.85 33.3657 147.58 34.5617 145.861 34.5617C143.693 34.5617 142.422 32.8425 142.422 30.8243C142.422 28.8061 143.693 27.0869 145.861 27.0869C147.505 27.0869 148.701 27.9839 148.925 29.5536H147.729Z" fill="white"/>
<path d="M149.523 27.3112H155.279V28.3576H153.036V34.4122H151.766V28.3576H149.523V27.3112Z" fill="white"/>
<path d="M156.25 27.3112H157.521V34.4122H156.25V27.3112Z" fill="white"/>
<path d="M165.594 30.899C165.594 32.9172 164.323 34.6364 162.155 34.6364C159.988 34.6364 158.717 32.9172 158.717 30.899C158.717 28.8808 159.988 27.1616 162.155 27.1616C164.323 27.1616 165.594 28.8061 165.594 30.899ZM159.988 30.899C159.988 32.2444 160.661 33.5899 162.155 33.5899C163.65 33.5899 164.323 32.2444 164.323 30.899C164.323 29.5535 163.65 28.2081 162.155 28.2081C160.661 28.2081 159.988 29.4788 159.988 30.899Z" fill="white"/>
<path d="M166.715 27.3112H168.061L171.349 32.5435V27.3112H172.545V34.4122H171.2L167.986 29.1798V34.4122H166.79V27.3112H166.715Z" fill="white"/>
<path d="M174.937 32.095C174.937 33.2162 175.76 33.5899 176.731 33.5899C177.852 33.5899 178.226 33.0667 178.226 32.5434C178.226 32.0202 177.927 31.796 177.628 31.6465C177.105 31.4222 176.507 31.3475 175.535 31.0485C174.339 30.7495 173.966 30.002 173.966 29.2546C173.966 27.8344 175.311 27.1616 176.582 27.1616C178.077 27.1616 179.347 27.9838 179.347 29.404H178.077C178.002 28.5071 177.404 28.1333 176.507 28.1333C175.909 28.1333 175.162 28.3576 175.162 29.0303C175.162 29.5535 175.535 29.7778 175.984 29.9273C176.058 29.9273 177.703 30.3758 178.077 30.4505C179.048 30.7495 179.497 31.497 179.497 32.2444C179.497 33.8141 178.077 34.4869 176.656 34.4869C175.012 34.4869 173.741 33.7394 173.667 31.9455H174.937V32.095Z" fill="white"/>
</svg>
